<svg height="512pt" viewBox="0 0 512 512" width="512pt" xmlns="http://www.w3.org/2000/svg"><path d="M511.285 94.23L417.051 0l-94.23 94.23 28.269 28.27 45.972-45.973v80.641a100.415 100.415 0 01-34.66 75.918l-78.297 67.875a143.139 143.139 0 00-28.628 33.894c-7.457-12.597-16.895-24.011-28.102-33.722l-78.492-68.047a100.418 100.418 0 01-34.664-75.918v-80.64l45.976 45.972 28.27-28.27L94.23 0 0 94.23l28.27 28.27 45.972-45.973v80.641c0 40.754 17.66 79.434 48.453 106.129l78.492 68.043c21.481 18.62 33.86 46.16 33.965 75.488V512h39.977V407.086c0-28.875 12.816-56.547 35.164-75.918l78.297-67.871a140.375 140.375 0 0048.45-106.129v-80.64l45.976 45.972zm0 0"/></svg>